<?xml version="1.0" standalone="no"?>
<!DOCTYPE svg PUBLIC "-//W3C//DTD SVG 20010904//EN"
 "http://www.w3.org/TR/2001/REC-SVG-20010904/DTD/svg10.dtd">
<svg version="1.0" xmlns="http://www.w3.org/2000/svg"
 width="2000.000000pt" height="2000.000000pt" viewBox="0 0 2000.000000 2000.000000"
 preserveAspectRatio="xMidYMid meet">
<metadata>
Created by potrace 1.14, written by Peter Selinger 2001-2017
</metadata>
<g transform="translate(0.000000,2000.000000) scale(0.100000,-0.100000)"
fill="#000000" stroke="none">
<path d="M9875 19890 c3 -4 -6 -10 -20 -12 -14 -3 -25 -1 -25 4 0 5 -5 6 -11
3 -18 -12 -59 -13 -59 -1 0 7 -3 7 -8 1 -9 -13 -195 -14 -204 0 -5 6 -8 5 -8
-3 0 -7 -4 -10 -10 -7 -5 3 -10 1 -10 -4 0 -6 -20 -9 -50 -7 -28 1 -53 -1 -56
-6 -3 -4 -13 -4 -24 2 -12 7 -21 6 -28 -3 -7 -8 -31 -12 -62 -11 -30 0 -50 -3
-50 -10 0 -7 -3 -7 -8 -1 -10 14 -32 17 -32 4 0 -6 -6 -9 -14 -6 -8 3 -17 3
-20 -1 -4 -3 -29 -5 -56 -3 -28 1 -50 -2 -50 -7 0 -5 -25 -8 -56 -8 -31 1 -60
-4 -65 -10 -5 -6 -26 -10 -46 -8 -20 1 -47 -5 -60 -13 -13 -8 -23 -11 -23 -7
0 16 -66 9 -84 -9 -12 -12 -22 -14 -30 -8 -14 12 -28 12 -44 -1 -7 -6 -31 -11
-52 -10 -22 1 -40 -2 -40 -6 0 -4 -18 -8 -40 -9 -22 0 -52 -9 -66 -18 -15 -9
-23 -12 -20 -6 5 7 -1 10 -14 8 -12 -2 -25 -9 -30 -16 -5 -9 -10 -10 -14 -2
-5 8 -13 8 -29 -1 -12 -7 -26 -11 -31 -10 -4 2 -14 -3 -22 -9 -8 -6 -14 -7
-14 -2 0 5 -7 10 -15 10 -8 0 -15 -4 -15 -9 0 -4 -9 -8 -19 -8 -11 0 -22 -4
-25 -8 -3 -5 -22 -9 -42 -10 -21 -1 -40 -6 -44 -12 -4 -6 -14 -8 -23 -4 -9 3
-17 2 -17 -3 0 -5 -14 -10 -32 -11 -17 -2 -36 -7 -42 -11 -12 -10 -77 -24 -87
-19 -3 2 -13 -3 -22 -11 -9 -7 -23 -11 -32 -8 -8 4 -20 0 -27 -7 -8 -7 -21
-12 -31 -10 -10 1 -21 -4 -23 -11 -3 -8 -12 -11 -20 -8 -8 3 -21 0 -29 -7 -8
-7 -15 -10 -15 -7 0 3 -16 -1 -35 -9 -19 -8 -35 -11 -35 -7 0 5 -5 0 -11 -9
-5 -10 -16 -15 -24 -11 -9 3 -22 0 -30 -7 -8 -6 -19 -9 -25 -5 -5 3 -10 1 -10
-6 0 -6 -8 -9 -20 -6 -13 3 -25 -2 -35 -16 -8 -12 -15 -17 -15 -11 0 6 -7 11
-15 11 -8 0 -15 -4 -15 -9 0 -4 -7 -8 -16 -8 -8 0 -13 -4 -10 -8 2 -4 -7 -9
-20 -10 -14 -1 -34 -7 -45 -12 -11 -6 -24 -8 -29 -5 -6 3 -10 1 -10 -4 0 -6
-7 -11 -15 -11 -8 0 -15 -4 -15 -9 0 -6 -9 -8 -19 -6 -11 2 -25 -3 -31 -10 -6
-7 -20 -12 -31 -10 -10 2 -19 0 -19 -6 0 -5 -7 -9 -15 -9 -8 0 -15 -4 -15 -9
0 -4 -10 -8 -22 -7 -13 1 -26 -3 -30 -8 -6 -10 -17 -13 -53 -18 -11 -2 -26 -9
-34 -16 -7 -7 -26 -16 -42 -19 -16 -3 -29 -10 -29 -15 0 -5 -4 -7 -9 -3 -5 3
-15 0 -23 -7 -7 -7 -17 -13 -23 -13 -20 -1 -85 -29 -85 -38 0 -5 -6 -7 -14 -4
-8 3 -17 -1 -20 -9 -3 -9 -9 -13 -14 -11 -12 8 -72 -21 -72 -34 0 -9 -3 -9
-14 0 -11 9 -15 8 -20 -4 -3 -9 -10 -14 -15 -11 -5 3 -14 -1 -21 -9 -7 -8 -16
-12 -21 -9 -5 3 -9 0 -9 -5 0 -6 -5 -11 -11 -11 -6 0 -25 -10 -42 -22 -17 -12
-28 -17 -24 -11 4 6 -16 -1 -43 -16 -27 -14 -50 -32 -50 -40 0 -7 -6 -11 -15
-8 -8 4 -17 2 -20 -4 -4 -5 -10 -7 -15 -4 -4 3 -11 -2 -14 -11 -4 -9 -9 -14
-13 -11 -3 4 -19 -3 -35 -14 -16 -12 -35 -18 -43 -15 -8 3 -14 1 -12 -5 1 -6
-7 -16 -18 -22 -11 -7 -23 -16 -26 -20 -3 -5 -9 -8 -13 -8 -20 3 -26 0 -21 -9
3 -5 0 -7 -8 -5 -7 3 -21 -3 -31 -14 -10 -11 -23 -18 -27 -15 -5 3 -9 0 -9 -5
0 -6 -9 -11 -21 -11 -11 0 -17 -4 -14 -10 3 -5 -1 -10 -9 -10 -9 0 -16 -5 -16
-11 0 -5 -4 -8 -9 -4 -5 3 -16 -3 -23 -12 -7 -10 -20 -19 -28 -21 -8 -2 -17
-8 -18 -13 -2 -5 -8 -7 -13 -3 -5 3 -12 -2 -15 -10 -3 -9 -10 -13 -15 -10 -5
3 -9 0 -9 -7 0 -7 -3 -9 -6 -6 -4 4 -20 -3 -35 -14 -16 -11 -29 -17 -29 -12 0
4 -7 -1 -15 -11 -8 -11 -15 -17 -15 -13 0 7 -11 0 -44 -30 -8 -7 -16 -9 -20
-6 -3 3 -8 -1 -12 -10 -3 -9 -12 -13 -20 -10 -8 3 -14 0 -14 -6 0 -6 -7 -11
-16 -11 -8 0 -13 -3 -11 -7 3 -5 -1 -14 -9 -21 -8 -7 -14 -10 -14 -6 0 4 -10
-2 -23 -14 -13 -12 -27 -19 -30 -15 -4 3 -7 1 -7 -5 0 -7 -5 -12 -11 -12 -6 0
-17 -6 -24 -12 -35 -32 -45 -38 -60 -38 -8 0 -21 -11 -27 -25 -6 -14 -17 -24
-24 -23 -7 2 -22 -8 -33 -21 -12 -13 -21 -19 -21 -13 0 7 -12 -1 -27 -17 -16
-15 -38 -31 -51 -35 -12 -4 -20 -11 -17 -15 2 -4 -8 -14 -23 -22 -15 -7 -36
-23 -47 -35 -11 -12 -22 -22 -25 -22 -21 -3 -40 -17 -45 -33 -4 -11 -10 -17
-15 -14 -12 7 -61 -35 -54 -47 4 -7 2 -8 -4 -4 -7 4 -12 2 -12 -4 0 -7 -5 -10
-12 -8 -7 3 -30 -14 -53 -36 -22 -23 -52 -47 -67 -55 -15 -8 -26 -19 -25 -25
1 -6 -4 -10 -11 -9 -6 2 -12 -3 -12 -10 0 -12 -51 -57 -66 -57 -3 0 -50 -44
-103 -97 -53 -54 -101 -97 -108 -95 -6 1 -14 -6 -17 -16 -4 -11 -18 -24 -32
-31 -14 -6 -23 -15 -19 -20 3 -5 -4 -13 -16 -16 -11 -4 -18 -9 -15 -12 3 -3
-13 -20 -34 -38 -21 -18 -36 -35 -33 -39 4 -3 -1 -6 -10 -6 -8 0 -19 -9 -22
-20 -4 -11 -10 -18 -14 -16 -4 3 -14 -4 -22 -16 -19 -28 -82 -88 -92 -88 -5 0
-5 -4 -2 -10 3 -5 1 -10 -4 -10 -6 0 -11 -5 -11 -10 0 -6 -19 -29 -43 -51 -23
-23 -41 -46 -40 -50 2 -5 -1 -8 -5 -6 -8 2 -75 -62 -77 -73 -1 -10 -24 -45
-25 -37 0 15 -67 -62 -80 -92 -6 -17 -16 -29 -20 -28 -11 3 -70 -65 -70 -81 0
-7 -4 -10 -10 -7 -5 3 -10 0 -10 -7 0 -7 -11 -22 -25 -32 -13 -10 -22 -22 -20
-26 3 -5 -7 -18 -21 -29 -15 -12 -24 -21 -20 -21 8 0 -10 -23 -47 -57 -15 -15
-26 -31 -24 -37 2 -6 -10 -21 -25 -34 -16 -14 -27 -30 -24 -37 2 -7 -6 -18
-20 -25 -13 -8 -24 -19 -24 -25 0 -7 -16 -30 -35 -51 -19 -20 -33 -40 -30 -42
4 -4 1 -9 -40 -55 -14 -15 -25 -35 -25 -43 0 -8 -4 -13 -9 -10 -8 5 -23 -17
-25 -37 -1 -4 -8 -12 -16 -17 -8 -5 -11 -10 -7 -10 5 0 2 -7 -5 -15 -25 -27
-53 -69 -65 -95 -4 -8 -15 -22 -25 -31 -10 -9 -15 -19 -11 -22 3 -4 -2 -9 -11
-13 -9 -3 -13 -10 -10 -15 3 -5 0 -9 -6 -9 -6 0 -9 -4 -6 -9 3 -4 -3 -16 -14
-26 -11 -10 -17 -21 -15 -25 3 -4 -2 -10 -10 -14 -8 -3 -12 -12 -9 -20 3 -9
-3 -17 -15 -21 -12 -3 -19 -11 -16 -16 3 -5 -3 -19 -14 -31 -12 -12 -21 -28
-21 -35 0 -7 -4 -13 -9 -13 -5 0 -12 -11 -15 -25 -4 -14 -11 -23 -17 -20 -5 4
-8 3 -7 -2 4 -13 -23 -73 -34 -73 -5 0 -6 -5 -3 -10 3 -6 -1 -13 -9 -16 -9 -3
-16 -15 -16 -25 0 -10 -5 -19 -11 -19 -5 0 -7 -4 -4 -10 3 -5 1 -10 -4 -10 -6
0 -11 -6 -11 -13 0 -8 -11 -27 -25 -43 -14 -16 -25 -37 -25 -46 0 -10 -5 -18
-11 -18 -6 0 -9 -6 -6 -14 3 -8 -3 -22 -13 -31 -11 -10 -17 -21 -15 -25 3 -4
-1 -10 -9 -13 -8 -3 -13 -14 -12 -24 2 -9 -5 -26 -16 -37 -10 -11 -18 -25 -18
-32 0 -6 -7 -17 -15 -24 -9 -7 -14 -19 -11 -26 3 -7 -2 -15 -10 -18 -8 -3 -14
-12 -14 -21 0 -8 -4 -15 -9 -15 -6 0 -8 -9 -6 -20 3 -13 0 -18 -7 -14 -7 5 -9
-2 -6 -19 3 -15 1 -24 -3 -21 -5 3 -9 -2 -9 -10 0 -9 -4 -16 -9 -16 -8 0 -23
-41 -20 -56 0 -4 -5 -10 -13 -15 -7 -5 -13 -13 -13 -19 0 -6 -6 -15 -14 -19
-9 -6 -10 -11 -2 -15 7 -5 6 -14 -4 -30 -8 -12 -12 -26 -8 -31 5 -4 2 -5 -5
-1 -7 4 -12 1 -12 -8 0 -9 -5 -16 -11 -16 -6 0 -9 -6 -6 -13 3 -7 -1 -21 -8
-31 -8 -10 -11 -24 -8 -32 3 -8 0 -14 -6 -14 -6 0 -11 -7 -11 -15 0 -8 -4 -15
-9 -15 -6 0 -8 -9 -6 -20 2 -12 -2 -23 -10 -26 -7 -3 -11 -12 -9 -19 3 -7 1
-16 -5 -20 -6 -3 -11 -15 -11 -26 0 -10 -4 -19 -10 -19 -5 0 -7 -7 -4 -15 4
-8 1 -15 -5 -15 -6 0 -11 -9 -11 -19 0 -11 -5 -23 -10 -26 -6 -4 -8 -10 -5
-15 3 -5 1 -11 -5 -15 -6 -4 -8 -11 -5 -16 4 -5 1 -9 -5 -9 -6 0 -9 -4 -5 -9
3 -5 1 -12 -5 -16 -5 -3 -10 -17 -10 -31 0 -13 -4 -24 -9 -24 -6 0 -8 -9 -6
-19 3 -15 -1 -18 -13 -14 -13 5 -15 3 -5 -7 9 -10 8 -18 -4 -36 -8 -13 -12
-24 -8 -24 4 0 3 -6 -2 -12 -11 -14 -25 -64 -21 -74 2 -3 -4 -9 -13 -14 -10
-6 -15 -20 -13 -35 1 -16 -3 -28 -12 -32 -11 -4 -12 -9 -4 -18 8 -9 6 -17 -5
-29 -9 -8 -15 -18 -15 -21 2 -10 -12 -69 -21 -85 -13 -26 -22 -54 -24 -80 -1
-14 -4 -27 -5 -30 -4 -7 -7 -22 -9 -38 0 -7 -5 -11 -10 -8 -5 3 -9 -10 -9 -30
0 -20 -4 -39 -10 -43 -5 -3 -8 -14 -6 -23 1 -10 -2 -20 -7 -24 -5 -3 -9 -15
-9 -28 0 -12 -5 -27 -11 -33 -7 -7 -7 -13 -1 -17 10 -6 -7 -56 -19 -56 -3 0
-5 -11 -4 -25 2 -14 0 -25 -5 -25 -4 0 -7 -14 -6 -31 1 -17 -3 -33 -9 -35 -6
-3 -10 -20 -9 -39 2 -19 -1 -37 -6 -40 -6 -4 -10 -19 -10 -35 0 -16 -4 -31 -9
-34 -5 -4 -8 -18 -6 -34 2 -15 -2 -33 -7 -39 -6 -7 -10 -33 -11 -58 0 -25 -3
-45 -7 -45 -3 0 -6 -21 -7 -47 -1 -26 -6 -49 -11 -51 -5 -1 -7 -18 -5 -38 2
-22 -1 -36 -9 -39 -9 -4 -12 -26 -10 -76 1 -43 -2 -77 -9 -85 -9 -11 -8 -14 2
-14 9 0 10 -3 3 -8 -6 -4 -10 -32 -9 -62 0 -30 -4 -66 -10 -80 -6 -14 -10 -52
-9 -85 1 -33 -2 -64 -6 -70 -4 -5 -7 -40 -6 -78 0 -37 -3 -67 -8 -67 -5 0 -3
-6 3 -14 9 -11 9 -15 0 -18 -9 -3 -13 -45 -13 -155 -1 -99 -5 -155 -13 -164
-16 -19 -15 -509 1 -515 8 -3 11 -50 11 -142 0 -75 3 -142 8 -149 4 -6 9 -57
10 -112 0 -56 4 -101 7 -101 4 0 7 -21 8 -47 0 -27 4 -70 7 -98 4 -27 7 -78 8
-112 1 -35 5 -63 9 -63 4 0 8 -29 8 -65 0 -36 4 -65 8 -65 5 0 8 -15 7 -32 0
-18 5 -51 12 -72 10 -29 10 -42 2 -52 -9 -11 -8 -14 0 -14 7 0 9 -4 6 -10 -3
-5 -1 -10 5 -10 6 0 8 -4 5 -10 -3 -5 -1 -10 5 -10 6 0 8 -5 3 -12 -10 -18
-10 -42 1 -50 5 -3 11 -24 13 -45 8 -89 15 -133 23 -133 4 0 6 -12 6 -27 -1
-16 4 -39 10 -53 6 -14 10 -33 9 -42 -2 -10 1 -20 5 -23 5 -3 7 -14 5 -25 -2
-11 1 -20 6 -20 6 0 7 -5 4 -10 -4 -6 1 -22 10 -37 9 -14 12 -22 6 -19 -6 4
-11 1 -11 -8 0 -8 5 -18 11 -22 6 -3 9 -17 6 -31 -3 -15 1 -27 9 -30 8 -3 12
-18 10 -39 -1 -22 2 -34 10 -34 8 0 11 -9 8 -26 -3 -15 -1 -23 5 -20 13 9 19
-15 10 -41 -6 -15 -4 -23 8 -27 8 -4 13 -13 9 -21 -3 -8 -1 -17 4 -20 6 -4 10
-19 10 -36 0 -16 5 -29 10 -29 6 0 8 -11 6 -25 -3 -14 -1 -23 5 -20 5 4 9 3
10 -2 0 -4 2 -19 3 -32 2 -14 8 -27 14 -29 6 -2 8 -10 5 -18 -3 -8 0 -21 7
-29 7 -8 9 -15 4 -15 -4 0 -3 -5 4 -12 7 -7 12 -22 12 -35 0 -13 5 -23 11 -23
6 0 9 -7 5 -15 -3 -8 0 -15 7 -15 8 0 8 -3 -2 -9 -11 -7 -9 -11 8 -21 16 -8
20 -15 12 -24 -7 -9 -7 -16 1 -24 7 -7 13 -17 15 -24 13 -61 26 -103 35 -109
8 -5 19 -39 20 -66 1 -7 6 -13 11 -13 5 0 7 -11 5 -25 -3 -13 -2 -23 1 -21 3
2 11 -2 18 -9 8 -9 9 -15 2 -17 -5 -2 -1 -13 10 -25 14 -15 17 -23 8 -27 -9
-3 -8 -7 3 -15 8 -6 11 -11 7 -11 -5 0 -1 -7 8 -16 9 -9 13 -24 10 -35 -4 -13
-2 -19 9 -19 9 0 15 -3 15 -7 -5 -25 15 -73 30 -73 13 0 13 -2 2 -9 -12 -7
-12 -13 0 -40 8 -17 18 -31 23 -31 4 0 6 -7 2 -15 -3 -8 -1 -15 4 -15 6 0 10
-11 10 -25 0 -14 5 -25 11 -25 5 0 7 -5 4 -10 -3 -5 -1 -10 6 -10 6 0 9 -8 6
-19 -2 -10 0 -25 5 -32 8 -11 8 -10 4 4 -3 11 -2 16 4 12 6 -3 10 -17 10 -30
0 -13 5 -27 10 -30 6 -4 8 -11 5 -16 -4 -5 -3 -9 2 -9 12 0 35 -58 28 -70 -3
-5 1 -10 9 -10 10 0 13 -6 10 -15 -4 -8 -1 -15 5 -15 6 0 11 -7 11 -15 0 -16
20 -56 33 -66 4 -3 9 -15 10 -27 0 -11 5 -18 9 -16 4 3 8 -4 8 -16 0 -11 6
-23 13 -26 8 -3 14 -11 15 -19 1 -8 3 -22 4 -30 1 -8 6 -15 13 -15 6 0 11 -10
12 -21 1 -12 8 -29 16 -38 8 -9 12 -22 9 -30 -3 -8 0 -11 7 -7 7 5 11 -1 11
-13 0 -12 5 -21 10 -21 6 0 10 -9 10 -20 0 -11 5 -20 12 -20 6 0 8 -3 5 -7 -4
-3 0 -14 9 -24 8 -9 17 -23 18 -31 3 -19 27 -62 40 -70 8 -5 7 -8 -1 -8 -8 0
-5 -8 7 -20 12 -12 18 -25 15 -30 -4 -6 -1 -10 5 -10 5 0 21 -23 33 -50 13
-28 25 -48 28 -46 3 3 6 -5 6 -17 1 -12 7 -23 12 -25 5 -2 7 -10 4 -18 -3 -8
1 -14 11 -14 9 0 16 -8 16 -20 0 -11 5 -20 11 -20 5 0 8 -4 4 -9 -3 -6 1 -13
9 -18 14 -8 16 -12 16 -34 0 -5 5 -7 12 -3 6 4 8 3 4 -4 -3 -6 1 -17 9 -25 8
-9 15 -23 15 -31 0 -9 5 -16 10 -16 6 0 10 -9 10 -19 0 -11 3 -21 8 -23 4 -1
18 -18 31 -37 13 -19 17 -30 10 -26 -8 5 -4 -3 9 -17 12 -13 22 -30 22 -36 0
-7 4 -12 10 -12 5 0 6 -7 3 -17 -4 -10 -2 -14 4 -10 6 4 14 -4 17 -18 4 -14
13 -25 22 -25 8 0 13 -4 10 -9 -8 -12 23 -71 39 -78 8 -2 11 -11 8 -19 -3 -8
0 -14 6 -14 6 0 11 -9 11 -19 0 -10 7 -21 15 -25 8 -3 15 -12 15 -21 0 -8 5
-15 11 -15 6 0 9 -6 6 -12 -2 -7 8 -21 22 -30 16 -11 20 -18 11 -18 -12 -1
-12 -3 2 -14 10 -7 15 -16 11 -19 -3 -4 1 -7 10 -7 10 0 14 -5 11 -15 -4 -9 2
-18 17 -24 13 -5 20 -10 16 -10 -11 -1 23 -61 46 -83 10 -9 19 -20 19 -25 0
-4 13 -27 29 -50 16 -23 29 -46 29 -51 0 -6 6 -12 12 -15 7 -3 22 -22 33 -43
11 -22 27 -46 35 -54 16 -16 27 -34 62 -101 11 -22 25 -36 31 -32 5 3 7 1 4
-4 -4 -6 2 -22 13 -36 11 -14 20 -29 20 -34 0 -4 12 -19 25 -32 14 -13 25 -29
25 -37 0 -8 4 -14 9 -14 5 0 12 -8 15 -17 14 -38 38 -73 57 -83 11 -6 17 -15
13 -21 -3 -5 6 -19 20 -30 14 -11 26 -27 26 -35 0 -8 4 -14 10 -14 5 0 12 -11
16 -25 3 -14 12 -25 20 -25 8 0 14 -7 14 -15 0 -8 5 -15 11 -15 5 0 7 -4 4
-10 -3 -5 6 -19 20 -32 14 -12 25 -26 25 -31 0 -5 11 -20 25 -33 14 -13 25
-26 25 -29 -1 -21 2 -25 17 -25 9 0 14 -3 10 -6 -3 -4 -1 -12 6 -20 30 -33 35
-42 30 -48 -4 -3 0 -6 8 -6 8 0 21 -15 30 -33 9 -17 22 -31 28 -30 6 2 11 0
10 -5 -3 -19 15 -52 28 -52 8 0 11 -5 8 -11 -4 -5 2 -18 13 -27 10 -9 25 -28
32 -42 7 -14 22 -31 32 -39 11 -7 17 -19 14 -27 -3 -8 0 -14 6 -14 12 0 58
-50 58 -63 0 -5 12 -21 28 -36 15 -14 28 -33 30 -41 2 -8 12 -20 23 -28 10 -7
19 -20 19 -28 0 -8 3 -14 8 -14 4 0 18 -17 32 -37 37 -56 53 -73 68 -73 7 0
10 -5 7 -10 -4 -6 5 -23 19 -37 14 -14 26 -30 26 -35 0 -6 15 -24 32 -40 18
-17 33 -33 34 -37 3 -20 18 -41 35 -46 11 -4 17 -10 14 -15 -3 -4 2 -13 10
-20 8 -7 15 -19 15 -28 0 -8 3 -12 6 -9 7 6 64 -52 64 -65 0 -4 21 -28 47 -54
27 -26 48 -50 48 -55 0 -4 10 -17 23 -29 12 -11 22 -25 22 -30 0 -5 20 -30 45
-55 25 -24 45 -47 45 -50 1 -15 13 -34 20 -30 5 3 11 -4 15 -15 3 -11 11 -20
16 -20 5 0 9 -6 9 -14 0 -7 16 -27 35 -43 19 -17 32 -33 29 -36 -8 -7 67 -83
78 -80 4 2 5 -3 2 -10 -2 -7 10 -27 28 -44 37 -34 68 -70 68 -79 0 -3 27 -32
60 -64 33 -32 60 -62 60 -66 0 -3 11 -19 25 -36 14 -16 25 -26 25 -22 0 4 13
-10 30 -31 16 -20 27 -42 23 -49 -3 -6 -3 -8 1 -4 8 6 81 -66 81 -80 0 -5 21
-29 48 -54 26 -25 47 -50 47 -55 0 -5 10 -19 23 -30 71 -68 99 -102 92 -114
-5 -8 -5 -11 0 -7 4 4 40 -26 80 -67 40 -41 75 -72 79 -68 4 4 4 0 1 -9 -4 -9
0 -18 9 -21 9 -4 16 -14 16 -22 0 -9 5 -13 10 -10 6 3 10 2 10 -4 0 -6 27 -37
60 -69 33 -33 60 -63 60 -68 0 -5 39 -47 85 -93 47 -46 85 -87 85 -92 0 -4 43
-51 95 -104 53 -53 90 -94 83 -90 -7 4 6 -12 29 -34 23 -23 39 -41 35 -41 -3
0 5 -8 18 -17 14 -9 30 -24 37 -33 21 -29 95 -100 104 -100 5 0 9 -7 9 -16 0
-8 4 -13 8 -10 5 3 15 -7 23 -22 8 -15 49 -62 91 -104 43 -42 78 -81 78 -87 0
-5 7 -12 16 -15 9 -4 14 -9 11 -12 -7 -8 38 -54 53 -54 6 0 8 -4 5 -10 -3 -5
2 -10 11 -10 10 0 15 -3 12 -6 -8 -7 79 -94 94 -94 6 0 9 -3 5 -6 -3 -3 17
-27 43 -54 27 -26 47 -49 45 -52 -3 -2 17 -25 44 -50 27 -26 47 -49 44 -52 -4
-3 1 -6 9 -6 9 0 19 -7 22 -16 3 -8 11 -12 17 -8 7 4 9 3 5 -4 -3 -6 3 -17 14
-25 11 -7 17 -17 13 -20 -3 -4 -1 -7 6 -7 7 0 22 -11 33 -25 11 -14 24 -22 30
-19 6 4 8 2 5 -3 -4 -6 15 -30 41 -53 26 -24 46 -47 45 -52 -2 -4 1 -8 6 -8 9
0 131 -119 131 -128 0 -4 13 -16 30 -27 16 -11 34 -30 41 -42 7 -12 16 -20 21
-17 4 3 8 0 8 -6 0 -6 4 -8 10 -5 6 4 7 -1 3 -12 -3 -10 -3 -15 1 -12 4 4 39
-26 78 -67 40 -40 75 -71 79 -68 4 2 10 -5 14 -16 3 -11 11 -20 16 -20 6 0 7
-5 4 -10 -3 -6 1 -10 10 -10 9 0 38 -22 64 -49 27 -28 51 -47 55 -44 3 4 6 2
6 -3 0 -12 36 -52 75 -84 17 -14 32 -28 33 -32 4 -15 40 -46 46 -41 3 4 6 2 6
-4 0 -13 87 -103 100 -103 6 0 10 -4 10 -10 0 -5 4 -10 9 -10 5 0 45 -34 88
-75 101 -96 111 -105 123 -105 6 0 10 -4 10 -10 0 -14 52 -60 62 -54 5 3 7 0
6 -7 -2 -7 7 -18 20 -25 13 -6 47 -36 75 -66 29 -29 64 -60 79 -67 15 -8 25
-17 23 -21 -3 -4 4 -10 15 -13 11 -3 20 -13 20 -22 0 -9 4 -13 10 -10 5 3 22
-5 37 -19 15 -15 32 -26 36 -26 14 0 37 -27 29 -34 -3 -4 1 -4 10 -1 9 4 19 1
23 -4 3 -6 11 -9 16 -6 5 4 12 0 15 -9 3 -8 12 -12 20 -9 8 3 14 0 14 -6 0 -6
11 -11 25 -11 14 0 25 -4 25 -9 0 -6 9 -8 19 -6 11 2 22 -3 25 -11 3 -7 12
-11 21 -8 8 4 21 2 28 -3 6 -5 26 -9 42 -8 17 1 37 -5 45 -11 19 -16 286 -15
283 1 -1 6 15 10 35 9 20 0 42 3 49 8 7 6 18 8 25 6 7 -3 24 1 37 8 14 7 28
11 33 8 4 -3 8 0 8 5 0 6 3 10 8 10 4 -1 10 0 15 1 4 1 10 3 15 5 4 1 20 7 35
13 16 7 33 12 38 12 6 0 7 5 3 12 -5 8 -2 9 10 5 10 -4 19 -1 22 8 4 8 9 13
13 11 4 -3 31 13 59 34 29 22 52 37 52 33 0 -3 11 6 25 21 14 15 30 24 35 21
6 -3 10 2 10 11 0 10 3 15 6 11 3 -3 24 13 46 36 22 23 44 41 49 40 5 -2 9 2
9 7 0 6 7 10 16 10 8 0 13 3 11 8 -5 9 30 42 37 35 6 -6 10 14 6 32 -1 5 1 7
5 3 4 -4 21 6 39 22 17 17 35 30 39 30 12 0 196 188 190 194 -3 2 4 2 14 0 13
-4 23 3 33 20 7 14 15 24 18 22 2 -3 22 15 43 40 21 25 39 42 39 39 0 -4 15
11 34 34 18 22 36 37 40 34 3 -4 6 1 6 11 0 9 3 15 8 13 4 -2 17 7 29 20 12
13 20 23 16 23 -3 0 10 13 30 29 20 15 34 31 30 35 -3 3 -1 6 5 6 6 0 32 22
57 49 26 27 61 56 78 65 18 9 29 16 25 16 -11 0 222 230 233 230 5 0 8 3 7 8
-3 10 175 188 184 185 7 -3 12 12 9 29 0 5 3 7 7 5 5 -1 37 27 73 63 35 36 67
64 71 63 5 -2 8 3 8 11 0 8 7 17 16 20 8 3 12 11 9 16 -4 6 -2 9 2 8 5 -2 52
40 104 92 52 52 97 94 102 92 4 -1 7 3 7 8 0 6 10 21 23 33 13 12 26 30 30 40
3 9 11 17 17 17 6 0 8 4 5 10 -3 5 -2 10 3 10 5 0 30 20 54 45 25 25 43 45 40
45 -3 0 9 11 28 25 19 14 30 25 26 25 -5 0 8 14 29 30 21 17 34 30 30 30 -4 0
4 9 18 21 15 11 26 23 24 27 -1 4 58 67 131 139 72 73 132 138 132 143 0 6 4
9 9 5 8 -5 38 34 33 43 -1 1 0 1 2 0 2 -2 19 16 37 39 19 23 42 45 51 48 9 3
20 15 23 26 4 10 12 19 20 19 7 0 15 9 18 21 3 12 10 18 16 15 5 -4 12 3 16
14 4 11 11 17 17 14 7 -4 8 -2 4 4 -4 7 15 34 43 64 28 29 51 57 51 61 0 5 5
5 10 2 6 -3 10 1 10 9 0 8 16 30 35 49 19 19 31 37 27 41 -4 4 -2 6 4 4 11 -3
78 61 104 101 17 26 108 119 112 116 2 -2 9 3 16 11 7 8 11 14 8 14 -2 0 8 13
22 29 15 16 50 54 77 86 28 31 58 66 68 76 9 10 15 19 12 19 -2 0 12 16 32 35
20 19 32 35 28 35 -4 0 15 22 43 49 29 28 52 55 52 61 0 6 15 26 34 43 33 31
36 36 36 57 0 6 6 10 13 10 6 0 21 14 32 30 11 16 23 30 26 30 3 0 14 7 25 16
10 8 12 12 4 8 -13 -7 -13 -6 0 11 8 10 36 41 63 68 26 28 45 52 43 55 -7 6
18 31 27 25 4 -2 7 3 7 11 0 9 4 16 10 16 5 0 22 19 36 43 15 23 31 44 36 46
16 6 58 52 58 63 0 6 10 19 23 30 12 11 22 23 22 27 0 4 15 22 32 41 18 19 33
38 33 42 0 4 14 21 30 38 17 17 30 35 30 40 0 5 6 7 14 4 9 -3 16 4 20 21 8
30 41 66 52 57 4 -4 4 1 1 10 -4 12 -1 18 8 18 15 0 38 33 30 44 -3 3 -2 4 1
2 7 -6 52 46 50 57 0 5 7 13 17 18 9 6 14 15 11 21 -4 6 -3 8 3 5 12 -8 46 31
38 43 -4 6 2 10 11 10 10 0 15 3 11 6 -3 4 7 18 23 32 17 15 30 30 30 35 0 4
14 21 31 38 17 17 29 33 26 35 -3 3 12 22 32 42 22 21 36 43 33 52 -3 8 -2 12
2 9 10 -9 53 33 49 47 -2 6 8 19 22 30 14 10 25 25 25 32 0 8 11 23 25 34 14
11 25 26 25 33 0 7 11 23 26 34 14 11 25 22 25 25 -2 21 1 26 15 26 8 0 12 5
9 10 -3 6 -1 10 4 10 6 0 11 6 11 13 0 8 9 22 20 32 11 10 18 20 16 23 -3 2 4
13 15 25 10 11 19 27 19 34 0 7 7 13 15 13 8 0 15 7 15 15 0 8 5 15 10 15 6 0
10 7 10 15 0 8 4 15 8 15 5 0 15 11 22 25 7 13 18 23 24 22 6 -1 10 4 8 12 -1
7 9 23 23 35 14 12 25 26 25 32 0 6 11 21 25 34 14 13 23 25 20 28 -2 3 8 16
23 31 15 14 28 32 30 39 1 7 14 24 29 38 14 13 23 24 19 24 -8 0 43 71 59 82
6 4 6 8 1 8 -6 0 -1 7 10 16 10 8 13 12 5 8 -9 -5 -12 -3 -7 4 4 7 14 12 22
12 8 0 12 5 9 10 -3 6 -1 10 6 10 7 0 10 3 6 6 -3 3 3 14 14 25 10 10 19 25
19 33 0 8 7 16 15 20 8 3 15 12 15 21 0 8 5 15 11 15 5 0 7 5 4 10 -3 6 1 10
9 10 10 0 13 6 10 15 -4 8 -1 15 5 15 6 0 19 16 28 35 9 19 20 35 25 35 4 0 8
6 8 14 0 8 7 16 15 20 8 3 15 12 15 20 0 8 8 22 17 32 10 10 18 20 19 23 3 21
18 40 27 34 6 -3 7 -1 3 6 -5 7 1 20 14 31 12 10 21 21 21 24 -3 20 0 26 9 21
5 -3 12 6 16 20 3 14 10 25 14 25 5 0 11 8 14 18 4 10 20 34 36 52 16 18 28
36 25 38 -3 3 4 12 15 19 11 8 18 19 15 24 -4 5 1 12 9 15 9 3 16 12 16 20 0
8 5 14 11 14 5 0 8 4 5 9 -3 5 1 12 10 15 9 4 14 9 11 13 -4 3 5 19 18 35 14
16 23 34 19 39 -3 5 -1 9 5 9 5 0 13 9 16 20 4 12 11 17 18 14 7 -4 9 -4 5 1
-8 9 40 105 53 105 5 0 9 9 9 20 0 11 5 20 10 20 6 0 10 7 10 15 0 8 5 15 11
15 5 0 7 4 4 10 -3 6 -1 10 5 10 7 0 10 7 6 15 -3 10 1 15 11 15 9 0 13 3 10
7 -4 3 3 17 15 30 12 13 18 23 13 23 -5 0 1 9 13 20 12 12 22 27 22 35 0 8 4
15 10 15 5 0 9 3 8 8 -2 4 8 25 21 47 14 22 24 43 23 47 -1 5 2 8 7 8 9 0 26
48 23 63 -1 4 5 7 13 7 9 0 12 6 9 15 -4 10 0 15 12 15 14 0 15 3 6 8 -10 7
-8 13 7 26 10 10 25 31 31 47 7 16 17 29 22 29 6 0 5 7 -2 15 -10 12 -10 15 1
15 17 0 41 48 32 63 -3 6 -1 7 4 4 6 -4 33 40 64 101 29 59 57 110 62 113 5 3
8 8 8 10 -2 14 13 49 21 49 6 0 8 7 4 15 -3 8 -2 15 3 15 8 0 24 38 22 53 -1
4 4 7 9 7 6 0 10 7 10 15 0 8 4 15 10 15 5 0 9 3 8 8 -1 4 8 26 20 48 11 23
18 44 15 48 -4 3 -1 6 5 6 7 0 12 7 12 15 0 8 4 15 10 15 5 0 9 3 8 8 -1 4 5
21 12 37 16 35 17 40 19 61 0 8 5 12 11 9 6 -3 7 1 4 9 -4 9 -1 16 6 16 7 0
10 7 6 15 -3 9 0 15 9 15 8 0 12 8 10 20 -2 12 2 20 10 20 9 0 12 6 9 15 -4 8
-1 21 5 29 6 7 8 16 4 19 -3 4 -1 7 5 7 7 0 12 9 12 20 0 11 7 20 15 20 13 0
14 4 5 20 -9 16 -8 22 5 26 8 3 13 10 10 14 -3 5 3 13 12 19 10 6 13 11 6 11
-7 0 -2 18 13 46 13 25 18 42 12 39 -7 -4 -4 1 6 9 11 9 16 16 12 16 -5 0 -3
6 3 13 6 8 8 17 4 20 -3 4 -1 7 6 7 7 0 10 4 6 9 -6 10 14 62 29 72 5 4 6 11
2 17 -3 6 0 16 7 24 7 7 12 20 12 28 -1 8 3 21 8 28 5 6 6 12 2 12 -4 0 -1 10
7 23 8 12 14 32 13 44 -1 14 4 23 12 23 8 0 12 4 9 9 -3 5 2 26 11 47 9 22 17
41 18 44 13 58 18 70 27 70 6 0 8 10 4 24 -4 16 -1 26 10 30 8 3 12 11 9 16
-4 6 -1 17 5 25 7 8 10 21 7 29 -3 8 1 17 10 20 12 5 13 9 4 20 -10 11 -8 16
5 24 11 6 15 17 11 31 -3 13 0 21 8 21 7 0 12 10 11 23 -1 12 1 27 5 32 4 6 9
24 12 40 2 17 10 44 17 60 7 17 14 41 14 55 1 14 5 30 9 37 4 6 8 23 9 37 1
14 5 26 9 26 3 0 6 10 5 23 -1 12 4 33 10 46 7 13 10 29 8 36 -3 7 0 16 5 20
6 3 9 11 6 16 -4 5 -1 9 6 9 8 0 9 3 0 14 -9 10 -8 16 4 26 9 7 13 20 11 27
-3 8 0 26 7 41 8 15 12 35 9 45 -2 10 1 24 8 31 6 8 9 26 6 40 -3 14 1 32 7
38 7 7 12 22 11 33 0 11 4 26 9 32 5 7 7 26 5 43 -2 16 -1 31 4 32 14 5 18 51
5 67 -9 12 -9 13 0 7 9 -5 12 1 9 23 -2 17 0 28 4 26 4 -3 10 2 14 10 3 8 0
15 -6 15 -7 0 -6 5 2 15 7 8 9 15 5 15 -4 0 -3 6 2 13 6 6 9 21 7 32 -1 10 2
25 8 32 7 9 7 13 -1 13 -8 0 -8 8 2 28 7 15 12 42 11 59 -1 18 2 35 7 39 5 3
9 34 9 70 0 36 4 64 10 64 12 0 9 22 -5 32 -6 5 -5 8 3 8 7 0 12 14 12 34 0
19 5 38 10 41 8 5 8 11 0 20 -6 7 -7 15 -3 18 5 3 8 25 7 49 -1 23 2 48 7 53
4 6 7 31 7 55 -1 25 2 68 7 95 4 28 9 118 9 200 2 104 6 149 13 148 8 -2 11
71 11 257 -1 178 -4 258 -11 257 -7 -1 -11 33 -12 100 0 56 -4 105 -7 109 -4
4 -4 14 0 23 5 9 6 34 4 56 -2 22 -4 52 -5 68 -1 15 -4 27 -7 27 -3 0 -5 20
-5 45 0 25 4 45 8 45 5 0 3 10 -5 23 -9 12 -14 36 -13 52 1 17 -2 38 -7 48 -5
9 -5 17 -1 17 5 0 8 14 8 30 1 16 -4 30 -10 30 -8 0 -11 23 -10 65 0 36 -3 65
-7 65 -5 0 -8 15 -8 33 1 66 0 77 -8 77 -4 0 -7 19 -7 43 1 23 -3 48 -9 55 -5
7 -11 34 -12 60 -5 76 -10 106 -21 127 -5 11 -9 35 -8 53 0 17 -4 32 -9 32 -5
0 -6 3 -3 6 3 4 2 15 -3 25 -7 12 -6 19 1 21 8 3 7 9 -3 19 -8 8 -14 27 -13
43 0 15 -4 30 -11 33 -6 2 -10 16 -8 31 1 14 -2 32 -8 39 -6 8 -8 16 -5 20 4
3 2 12 -4 20 -9 10 -8 13 2 13 11 1 11 3 -1 13 -9 7 -15 19 -15 27 1 8 -2 20
-6 25 -7 11 -19 66 -22 105 -1 14 -7 28 -13 32 -6 4 -10 19 -9 33 2 14 0 25
-4 25 -4 0 -8 10 -8 22 -1 13 -7 24 -12 26 -5 2 -7 10 -4 19 5 11 3 14 -6 8
-10 -6 -11 -3 -2 13 7 14 8 23 1 27 -5 3 -10 15 -10 26 0 10 -4 19 -9 19 -5 0
-9 14 -9 31 1 17 -3 34 -8 37 -5 4 -9 13 -10 20 -3 39 -5 43 -16 36 -9 -5 -9
-3 1 9 11 14 11 18 -2 23 -9 3 -14 15 -12 30 1 13 -2 27 -6 30 -5 3 -9 14 -9
25 0 10 -5 19 -11 19 -6 0 -9 7 -5 15 3 9 0 15 -8 15 -7 0 -12 10 -11 23 1 12
-5 31 -14 41 -10 12 -11 16 -2 11 9 -5 7 1 -4 19 -10 14 -13 26 -9 26 5 0 4 4
-1 8 -15 10 -37 80 -30 92 3 5 -1 10 -9 10 -9 0 -16 9 -16 20 0 11 -4 20 -10
20 -5 0 -7 7 -3 16 3 10 0 22 -8 28 -13 10 -18 25 -21 64 -1 6 -5 12 -9 12 -8
0 -22 40 -19 59 1 8 -4 18 -12 22 -7 5 -13 12 -14 16 -2 24 -28 93 -36 93 -4
0 -8 9 -8 19 0 11 -4 23 -10 26 -5 3 -10 17 -10 30 0 13 -5 27 -11 30 -11 8
-33 55 -31 68 1 4 -2 7 -8 7 -5 0 -10 9 -10 20 0 11 -5 20 -11 20 -6 0 -9 6
-6 13 2 6 -5 20 -15 29 -11 9 -17 22 -13 28 3 5 0 13 -8 16 -9 3 -13 13 -10
25 3 10 0 19 -6 19 -6 0 -11 9 -11 20 0 11 -4 20 -10 20 -5 0 -10 9 -10 20 0
11 -5 20 -11 20 -5 0 -7 5 -4 10 3 6 2 10 -3 10 -6 0 -13 7 -16 16 -4 10 -2
13 7 9 6 -4 3 2 -8 12 -19 17 -37 47 -39 66 -1 4 -8 12 -16 17 -8 5 -12 10 -7
10 4 0 1 13 -8 30 -8 16 -15 32 -15 35 0 3 -9 14 -20 25 -12 12 -18 25 -15 29
2 5 -2 12 -11 15 -8 3 -12 10 -9 16 3 5 2 10 -4 10 -5 0 -11 10 -13 23 -2 12
-9 21 -17 19 -12 -3 -12 0 -1 12 10 13 10 16 -4 16 -10 0 -14 5 -11 10 7 11
-19 42 -28 34 -3 -3 -4 2 -3 13 2 10 -2 21 -8 25 -6 4 -12 12 -12 18 -1 5 -2
15 -3 21 0 5 -5 7 -11 4 -5 -3 -10 0 -10 8 0 7 -8 22 -18 33 -10 10 -19 21
-19 24 -4 19 -28 60 -35 60 -4 0 -8 9 -8 20 0 10 -6 23 -14 27 -8 4 -14 10
-13 13 1 6 -34 61 -50 78 -7 8 -10 18 -7 24 4 6 3 8 -3 5 -5 -3 -17 8 -26 26
-25 47 -40 70 -56 83 -8 6 -11 16 -7 22 4 7 1 12 -8 12 -8 0 -18 9 -21 20 -3
11 -12 26 -18 32 -7 7 -29 39 -50 71 -20 31 -42 57 -48 57 -6 0 -9 5 -7 12 5
13 -26 48 -43 48 -5 0 -7 4 -4 10 3 5 -5 21 -19 35 -15 14 -26 30 -26 36 0 5
-11 21 -25 35 -14 14 -23 30 -20 35 4 5 -1 9 -9 9 -9 0 -16 3 -16 8 0 4 -11
20 -25 35 -14 15 -23 27 -20 27 3 0 -6 11 -20 25 -14 14 -25 30 -25 36 0 6 -4
7 -10 4 -5 -3 -10 0 -10 7 0 7 -14 27 -30 45 -17 18 -30 40 -30 49 0 10 -3 15
-6 11 -8 -8 -34 18 -34 33 0 6 -4 9 -9 5 -5 -3 -12 4 -16 14 -8 25 -65 87 -77
84 -4 -2 -7 1 -5 5 1 4 -22 32 -51 61 -29 30 -50 56 -47 59 6 6 -34 42 -47 42
-5 0 -7 4 -3 9 3 5 -4 12 -15 16 -11 4 -18 9 -16 13 2 4 -2 13 -10 20 -8 7
-14 11 -14 8 0 -3 -21 18 -47 46 -97 103 -191 196 -195 192 -3 -2 -11 7 -18
21 -7 14 -20 25 -28 25 -9 0 -13 3 -9 6 6 7 -60 74 -73 74 -5 0 -12 9 -15 20
-4 11 -12 19 -18 18 -7 -1 -31 16 -53 39 -23 23 -45 39 -49 35 -5 -4 -5 -2 -2
4 8 13 -16 37 -26 27 -4 -3 -7 2 -7 12 0 10 -3 15 -7 12 -3 -4 -20 8 -38 26
-17 17 -33 32 -36 33 -26 6 -48 17 -46 22 1 4 -3 9 -8 12 -12 5 -61 47 -86 74
-11 11 -19 16 -19 12 0 -5 -21 10 -47 33 -66 58 -70 61 -79 53 -4 -4 -4 -1 0
6 4 7 1 15 -8 18 -9 3 -13 11 -9 18 4 7 2 7 -8 -1 -13 -11 -20 -6 -45 26 -15
21 -34 37 -40 34 -7 -2 -18 5 -26 16 -8 12 -17 19 -19 16 -3 -2 -20 9 -38 25
-18 17 -37 28 -42 25 -5 -4 -9 0 -9 7 0 12 -33 39 -46 37 -3 0 -14 9 -23 20
-10 12 -26 21 -35 21 -9 0 -16 5 -16 10 0 6 -11 15 -25 20 -14 5 -25 14 -25
20 0 5 -8 10 -18 10 -9 0 -23 9 -30 20 -7 12 -17 18 -23 14 -6 -3 -17 3 -25
15 -9 12 -20 19 -25 16 -5 -4 -9 -1 -9 4 0 6 -6 11 -13 11 -7 0 -23 9 -35 20
-12 11 -26 20 -31 20 -6 0 -14 7 -19 16 -5 9 -11 15 -13 13 -9 -5 -49 13 -49
22 0 6 -4 7 -10 4 -5 -3 -10 -2 -10 3 0 5 -18 17 -40 28 -22 10 -40 22 -40 27
0 4 -9 7 -21 7 -11 0 -18 4 -15 9 6 9 -22 26 -37 22 -4 0 -10 6 -13 14 -3 8
-10 13 -14 10 -4 -3 -13 2 -20 10 -7 8 -16 15 -21 15 -5 0 -40 19 -77 41 -37
23 -73 42 -79 42 -7 0 -13 7 -13 16 0 11 -3 12 -8 5 -5 -8 -17 -5 -39 11 -18
12 -29 25 -25 29 4 5 0 7 -8 6 -21 -3 -60 11 -60 21 0 5 -9 9 -19 9 -11 0 -23
5 -26 11 -6 9 -51 30 -65 30 -3 0 -12 7 -21 15 -9 8 -19 11 -22 7 -4 -3 -7 -1
-7 6 0 8 -7 11 -15 7 -9 -3 -15 0 -15 10 0 9 -6 14 -12 11 -7 -2 -22 3 -32 12
-16 13 -18 13 -12 1 4 -8 1 -7 -7 3 -8 10 -24 19 -36 20 -11 1 -23 7 -25 14
-3 7 -16 13 -29 13 -13 0 -28 5 -35 12 -7 7 -12 8 -12 2 0 -5 -3 -5 -8 1 -11
15 -68 45 -86 45 -9 0 -24 4 -34 9 -20 11 -54 24 -65 25 -4 1 -12 8 -17 16 -5
8 -10 11 -10 6 0 -5 -7 -3 -15 4 -8 7 -22 10 -30 6 -9 -3 -18 1 -21 9 -3 8
-12 11 -21 8 -11 -4 -14 -2 -9 5 7 11 -6 17 -28 13 -4 -1 -14 3 -22 10 -7 6
-18 8 -24 4 -5 -3 -10 0 -10 7 0 8 -8 15 -17 16 -10 1 -31 3 -46 5 -16 2 -32
9 -37 17 -4 7 -12 10 -18 6 -5 -3 -13 1 -16 10 -3 8 -10 12 -16 9 -5 -3 -10
-1 -10 5 0 7 -8 9 -20 5 -13 -4 -22 -1 -26 8 -3 8 -13 14 -22 12 -9 -1 -23 2
-29 8 -7 5 -13 6 -13 2 0 -4 -11 0 -24 8 -13 9 -34 14 -45 12 -12 -2 -19 0
-16 6 4 5 -5 9 -19 9 -14 0 -26 5 -26 10 0 6 -13 10 -30 10 -16 0 -30 5 -30
11 0 6 -6 9 -14 6 -8 -3 -17 -3 -21 1 -4 4 -10 7 -13 8 -4 0 -14 4 -22 7 -8 4
-25 8 -38 10 -13 2 -27 8 -30 13 -4 5 -14 9 -22 9 -8 -1 -20 3 -27 8 -7 5 -16
6 -21 3 -5 -3 -20 1 -33 8 -14 7 -32 12 -41 10 -9 -1 -19 4 -22 12 -4 10 -11
11 -31 4 -19 -7 -25 -6 -25 3 0 7 -10 13 -22 14 -13 0 -49 8 -81 17 -32 9 -67
16 -78 16 -11 0 -18 4 -15 8 3 5 -11 8 -30 7 -20 -1 -34 3 -34 10 0 7 -11 10
-30 7 -16 -2 -30 0 -30 6 0 5 -15 9 -32 8 -18 -2 -38 1 -44 6 -6 4 -28 10 -47
11 -20 2 -40 6 -43 10 -4 4 -25 7 -46 7 -22 0 -37 4 -34 8 3 5 -1 9 -9 9 -8 0
-11 -5 -8 -11 5 -8 3 -8 -8 0 -8 5 -25 10 -39 9 -14 0 -31 5 -38 12 -8 7 -19
10 -25 6 -14 -9 -47 -5 -62 7 -5 4 -25 7 -43 5 -19 -1 -35 2 -38 9 -3 8 -23
11 -54 10 -27 -2 -52 1 -55 6 -3 5 -37 9 -77 9 -42 0 -74 5 -78 11 -10 17 -15
17 -35 0 -11 -8 -16 -10 -12 -4 4 7 -12 11 -51 10 -31 -1 -68 4 -81 11 -16 8
-29 9 -36 3 -7 -6 -14 -7 -18 -4 -3 3 -32 8 -64 10 -32 2 -71 5 -88 7 -16 1
-33 6 -37 12 -5 6 -8 6 -8 -2 0 -7 -9 -10 -22 -7 -13 3 -27 5 -33 5 -81 -6
-114 -6 -132 0 -13 5 -25 4 -29 -2 -4 -7 -12 -5 -22 4 -13 12 -48 15 -155 15
-75 0 -135 -3 -132 -8z m-3166 -2542 c25 -11 52 -21 62 -23 25 -5 59 -37 52
-48 -3 -6 -2 -7 4 -4 11 7 45 -28 36 -37 -4 -3 -1 -6 6 -6 7 0 10 -4 6 -9 -3
-5 1 -15 8 -23 7 -7 12 -20 12 -28 0 -8 3 -18 8 -21 4 -3 9 -21 9 -40 0 -19 4
-38 8 -44 10 -14 9 -45 -2 -39 -4 3 -8 -8 -8 -25 0 -16 -5 -33 -10 -36 -6 -4
-8 -11 -5 -16 4 -5 -1 -12 -9 -15 -9 -3 -13 -10 -10 -16 3 -5 -10 -24 -30 -42
-19 -19 -32 -37 -28 -41 4 -5 2 -5 -4 -2 -6 3 -18 -2 -27 -11 -25 -27 -45 -42
-57 -42 -5 0 -10 -4 -10 -10 0 -5 -7 -10 -15 -10 -8 0 -15 -4 -15 -10 0 -5 -7
-10 -15 -10 -8 0 -24 -9 -35 -20 -12 -12 -20 -15 -21 -7 0 6 -5 2 -11 -10 -6
-13 -17 -23 -24 -23 -12 0 -42 -22 -89 -66 -12 -11 -29 -20 -38 -18 -8 1 -20
-9 -26 -22 -6 -13 -18 -24 -26 -24 -9 0 -14 -4 -11 -9 5 -7 -21 -25 -32 -21
-1 0 -13 -10 -25 -23 -12 -12 -42 -37 -66 -55 -25 -18 -41 -32 -37 -32 5 0 -7
-13 -27 -29 -20 -15 -34 -31 -30 -35 3 -3 1 -6 -6 -6 -15 0 -28 -11 -97 -77
-30 -29 -58 -53 -63 -53 -11 0 -101 -90 -101 -100 0 -4 -49 -58 -110 -119 -60
-61 -110 -115 -110 -121 0 -5 -4 -10 -10 -10 -5 0 -10 -8 -10 -17 0 -9 -3 -14
-6 -11 -6 7 -82 -72 -82 -85 -1 -5 -12 -18 -26 -31 -14 -12 -26 -25 -26 -30 0
-5 -15 -26 -32 -47 -18 -21 -46 -56 -63 -78 -16 -23 -40 -52 -52 -66 -13 -15
-23 -33 -23 -41 0 -8 -4 -13 -9 -10 -11 7 -23 -22 -15 -35 3 -5 1 -9 -4 -9
-10 0 -55 -37 -50 -42 3 -4 -75 -122 -84 -126 -5 -2 -8 -8 -8 -14 0 -10 -31
-52 -69 -94 -11 -12 -17 -25 -14 -28 4 -3 -3 -14 -14 -23 -11 -10 -18 -24 -15
-32 3 -8 0 -11 -7 -7 -7 5 -11 -1 -11 -13 0 -11 -6 -24 -13 -28 -7 -4 -21 -24
-30 -43 -23 -46 -40 -74 -51 -81 -5 -4 -5 -12 -2 -18 4 -6 1 -11 -8 -11 -9 0
-13 -6 -10 -14 3 -8 -5 -21 -18 -30 -12 -9 -20 -16 -16 -16 4 0 -9 -30 -27
-66 -19 -37 -32 -71 -29 -75 3 -5 -3 -9 -12 -9 -10 0 -14 -3 -11 -7 4 -3 2
-12 -4 -19 -6 -8 -9 -20 -6 -28 3 -8 3 -16 -1 -18 -13 -6 -53 -88 -47 -97 3
-6 -2 -14 -11 -19 -9 -5 -15 -12 -15 -15 3 -20 -13 -56 -22 -50 -6 4 -8 0 -4
-10 3 -8 0 -21 -8 -27 -7 -6 -11 -22 -9 -36 2 -13 0 -24 -6 -24 -5 0 -10 -9
-10 -19 0 -11 -5 -23 -10 -26 -6 -4 -8 -10 -6 -14 3 -4 -3 -17 -14 -28 -10
-12 -16 -23 -13 -27 3 -3 -2 -8 -11 -12 -9 -3 -13 -10 -11 -15 3 -4 -8 -23
-24 -40 -17 -17 -29 -35 -26 -39 2 -4 -8 -13 -23 -21 -15 -8 -33 -20 -40 -27
-8 -7 -18 -10 -23 -7 -5 4 -18 0 -30 -8 -11 -8 -29 -13 -40 -10 -10 3 -19 1
-19 -4 0 -5 -22 -10 -50 -10 -27 0 -47 4 -44 9 3 4 -9 8 -25 8 -17 0 -31 5
-31 11 0 5 -4 7 -10 4 -5 -3 -10 -1 -10 5 0 6 -4 9 -9 6 -10 -6 -53 28 -45 36
2 3 -11 21 -31 41 -19 19 -35 44 -35 56 0 12 -5 21 -11 21 -7 0 -9 11 -5 30 4
20 2 30 -7 30 -6 0 -12 11 -12 25 0 14 4 25 9 25 5 0 4 6 -1 13 -11 15 -9 54
4 87 6 14 9 33 7 43 -1 9 2 17 8 17 6 0 9 3 5 6 -3 4 0 19 9 35 8 16 11 29 7
29 -5 0 0 5 10 11 9 6 15 15 11 20 -3 5 0 16 6 24 7 8 9 15 5 15 -4 0 -2 6 4
13 6 8 12 24 14 36 2 13 9 26 16 30 7 5 12 10 11 12 -1 2 4 18 11 34 7 17 12
33 11 38 -1 4 3 7 10 7 6 0 8 3 5 6 -3 4 -1 16 5 28 7 11 13 23 14 26 1 3 5
15 9 28 4 12 11 22 16 22 5 0 9 9 9 20 0 11 5 20 11 20 5 0 7 5 4 10 -3 6 -1
10 5 10 7 0 10 7 6 15 -3 8 -2 15 2 15 9 0 44 65 48 90 2 8 8 16 13 18 6 2 11
10 11 17 0 8 8 18 18 24 9 5 16 12 14 15 -5 13 11 56 19 50 5 -3 9 7 9 21 0
14 4 24 9 21 9 -6 26 22 23 37 -1 4 3 7 9 7 5 0 8 4 5 9 -3 4 3 16 14 26 11
10 20 24 20 32 0 7 5 13 10 13 6 0 9 3 8 8 -3 11 43 82 53 82 5 0 9 7 9 16 0
9 7 22 14 28 8 6 16 17 18 25 2 8 10 22 18 32 33 38 40 49 40 54 -1 3 8 17 19
32 12 14 19 29 16 33 -3 4 4 10 15 13 11 3 20 13 20 22 0 9 11 26 25 39 14 13
25 28 25 35 0 6 11 21 25 33 14 12 25 27 25 34 0 7 4 14 9 16 5 2 11 10 13 17
2 8 15 26 31 39 15 13 27 29 27 35 0 6 20 30 45 54 25 23 45 47 45 52 0 13 77
90 84 84 3 -3 4 3 2 14 -3 14 3 25 19 33 12 7 31 28 42 49 11 20 26 35 34 33
8 -2 11 0 7 4 -4 4 13 26 38 50 24 24 44 46 43 50 -3 9 292 304 303 304 4 0 8
5 8 11 0 13 38 49 52 49 4 0 7 6 5 13 -1 7 7 12 20 11 12 0 21 2 20 6 -3 8
120 130 132 130 5 0 28 20 52 45 23 24 46 42 51 39 4 -3 8 0 8 6 0 6 5 8 10 5
6 -3 10 -1 10 5 0 11 48 60 59 60 3 0 26 18 50 40 24 22 47 38 51 35 5 -3 11
4 15 14 3 11 15 23 26 26 10 4 19 13 19 21 0 8 4 13 9 10 5 -3 23 8 41 25 17
17 34 28 37 26 3 -3 18 10 34 28 17 19 46 39 65 45 19 6 32 16 29 21 -4 5 3 9
14 9 11 0 24 6 28 13 9 13 29 18 85 21 20 1 39 4 42 7 10 10 82 -3 125 -23z
m3085 -1510 c4 6 16 8 29 6 12 -3 27 -5 32 -5 65 6 133 6 148 -1 9 -5 17 -5
17 0 0 4 16 8 35 8 19 0 35 -4 35 -9 0 -4 6 -5 13 0 16 11 29 11 49 1 9 -4 19
-4 22 0 6 10 36 9 54 -2 7 -4 12 -2 12 6 0 10 2 10 9 -1 5 -8 32 -15 67 -17
130 -9 184 -16 184 -24 0 -5 19 -8 41 -8 23 0 44 -4 48 -8 10 -15 41 -16 41
-2 0 8 3 9 8 3 8 -11 31 -17 83 -19 23 0 35 -5 32 -13 -3 -7 3 -10 15 -6 11 2
23 0 26 -6 4 -6 18 -11 32 -11 13 0 24 -4 24 -8 0 -5 12 -8 28 -7 15 1 35 -5
45 -13 9 -8 20 -12 24 -9 3 4 13 2 20 -5 8 -7 22 -13 31 -14 34 -5 52 -10 58
-17 4 -4 18 -7 31 -7 12 0 23 -5 23 -11 0 -6 7 -8 16 -5 8 3 12 2 9 -4 -5 -9
23 -15 48 -11 4 0 7 -4 7 -9 0 -6 7 -10 15 -10 8 0 15 -4 15 -10 0 -5 7 -7 15
-4 8 4 15 1 15 -5 0 -6 11 -11 25 -11 14 0 25 -5 25 -10 0 -6 8 -10 18 -8 9 2
16 -2 15 -9 -2 -7 6 -10 17 -8 11 2 20 0 20 -4 0 -8 70 -41 89 -41 7 0 10 -4
7 -9 -6 -9 22 -26 37 -23 4 1 7 -2 7 -7 0 -9 38 -24 53 -22 4 1 10 -6 13 -14
3 -8 10 -12 16 -9 5 3 18 -4 29 -17 10 -12 19 -18 19 -13 1 5 9 -1 20 -14 11
-13 24 -21 30 -17 5 3 13 -1 16 -9 3 -9 10 -13 16 -10 5 3 16 -4 25 -16 8 -12
21 -19 29 -16 7 3 16 -4 19 -15 4 -12 13 -18 20 -15 7 2 24 -9 38 -25 14 -17
29 -31 34 -31 13 -2 73 -49 118 -94 23 -23 52 -45 64 -49 11 -3 21 -13 21 -21
0 -8 4 -14 10 -14 13 0 270 -261 265 -270 -2 -3 5 -12 15 -20 10 -8 16 -18 13
-23 -3 -6 -1 -7 4 -4 12 8 34 -15 56 -58 9 -16 16 -27 17 -22 0 13 40 -33 40
-47 0 -8 9 -18 20 -21 11 -4 18 -10 15 -15 -7 -12 5 -41 15 -35 7 4 21 -17 24
-35 1 -3 11 -16 24 -30 12 -13 22 -27 22 -31 0 -4 14 -23 30 -41 18 -19 29
-40 26 -51 -2 -9 -1 -15 2 -13 4 2 16 -6 27 -17 11 -11 13 -16 5 -12 -12 7
-12 5 1 -11 9 -10 20 -30 24 -44 4 -14 15 -31 24 -38 12 -10 12 -12 1 -6 -13
7 -13 6 0 -12 8 -10 20 -25 27 -32 6 -7 17 -28 24 -47 7 -19 17 -35 21 -35 4
0 8 -11 8 -25 0 -25 25 -73 44 -87 6 -4 7 -10 4 -13 -4 -4 2 -23 13 -42 11
-20 18 -42 15 -49 -3 -8 1 -14 10 -14 12 0 15 -6 11 -21 -3 -12 0 -22 8 -25 8
-3 11 -12 8 -20 -3 -8 0 -14 7 -14 7 0 10 -8 7 -20 -3 -10 -1 -20 5 -22 5 -2
10 -13 11 -26 0 -12 5 -22 9 -22 4 0 8 -9 8 -20 0 -11 4 -20 8 -20 5 0 8 -10
7 -22 -2 -28 5 -49 14 -44 4 3 6 -7 6 -22 -1 -15 3 -32 8 -39 5 -7 6 -16 3
-21 -3 -5 1 -20 8 -33 7 -14 11 -35 9 -48 -2 -16 1 -20 9 -15 10 6 10 5 0 -8
-10 -12 -10 -18 1 -27 8 -6 12 -22 9 -36 -2 -14 1 -31 7 -39 7 -8 10 -26 7
-40 -3 -14 1 -32 7 -38 14 -15 15 -37 3 -57 -6 -9 -5 -12 2 -7 7 4 9 -6 8 -29
-2 -20 0 -38 5 -41 5 -2 8 -20 7 -38 -1 -18 2 -38 6 -44 4 -7 2 -12 -4 -12 -6
0 -8 -5 -4 -12 11 -17 15 -44 16 -95 1 -26 5 -40 11 -36 6 4 7 1 1 -8 -12 -19
-12 -31 -2 -46 5 -6 5 -14 1 -16 -11 -7 -9 -119 2 -137 5 -8 4 -11 -2 -7 -14
9 -12 -85 2 -95 7 -5 7 -8 0 -8 -12 0 -14 -59 -2 -77 4 -6 4 -14 -1 -17 -5 -3
-8 -25 -7 -50 1 -25 -2 -43 -7 -40 -9 6 -12 -24 -9 -94 1 -24 -2 -41 -6 -39
-5 3 -9 -8 -9 -24 -1 -17 2 -26 9 -22 6 4 7 1 1 -8 -4 -8 -10 -23 -11 -34 -2
-11 -7 -21 -11 -23 -5 -1 -7 -16 -6 -32 1 -17 -3 -30 -8 -30 -6 0 -8 -11 -6
-25 3 -14 1 -28 -4 -31 -6 -4 -5 -10 3 -15 11 -7 11 -9 -2 -9 -12 0 -16 -8
-14 -30 1 -16 -1 -30 -5 -30 -3 0 -7 -6 -8 -12 -1 -7 -3 -25 -5 -40 -1 -15 -7
-31 -11 -35 -5 -5 -6 -2 -1 6 6 10 4 12 -4 6 -9 -5 -9 -11 -3 -17 7 -7 5 -22
-4 -44 -8 -19 -11 -34 -7 -34 5 0 2 -4 -4 -8 -7 -5 -14 -20 -15 -35 -1 -15 -6
-27 -11 -27 -4 0 -6 -4 -2 -9 3 -5 1 -12 -5 -16 -5 -3 -10 -16 -10 -28 0 -12
-9 -35 -19 -51 -11 -16 -17 -35 -14 -41 2 -7 0 -16 -6 -20 -6 -3 -11 -17 -11
-31 0 -13 -4 -24 -9 -24 -8 0 -24 -37 -22 -52 1 -5 -3 -8 -8 -8 -5 0 -11 -8
-15 -17 -3 -10 -9 -24 -12 -32 -5 -9 -3 -11 6 -6 8 5 5 -4 -6 -18 -10 -15 -22
-27 -26 -27 -5 0 -8 -10 -8 -23 0 -13 -5 -28 -11 -34 -6 -6 -12 -19 -14 -29
-1 -11 -8 -18 -14 -17 -6 2 -11 0 -10 -5 2 -15 -14 -52 -23 -52 -6 0 -8 -7 -4
-15 3 -9 0 -15 -9 -15 -9 0 -12 -6 -9 -15 4 -8 1 -15 -5 -15 -6 0 -19 -16 -28
-35 -9 -19 -20 -35 -25 -35 -4 0 -8 -7 -8 -15 0 -8 -5 -15 -11 -15 -5 0 -7 -4
-4 -10 3 -5 -1 -10 -9 -10 -9 0 -13 -6 -10 -14 3 -7 -2 -16 -11 -20 -10 -3
-15 -12 -11 -21 3 -9 0 -15 -10 -15 -8 0 -12 -4 -9 -10 3 -5 1 -10 -5 -10 -6
0 -16 -13 -21 -30 -6 -16 -15 -27 -20 -24 -5 3 -12 -3 -16 -13 -4 -10 -9 -20
-12 -23 -19 -17 -59 -79 -54 -84 4 -3 1 -6 -5 -6 -16 0 -52 -37 -44 -44 3 -3
1 -6 -4 -6 -5 0 -18 -14 -28 -30 -9 -17 -22 -28 -27 -25 -8 6 -13 -8 -10 -28
1 -5 -3 -6 -7 -3 -5 3 -25 -13 -43 -36 -47 -57 -105 -118 -112 -118 -14 0 -56
-43 -51 -52 3 -5 2 -7 -3 -6 -5 2 -21 -9 -35 -24 -14 -15 -28 -25 -31 -21 -4
3 -7 -1 -7 -9 0 -9 -13 -21 -30 -28 -16 -7 -28 -17 -27 -24 1 -6 -6 -10 -15
-10 -10 1 -15 -2 -12 -7 3 -5 -4 -9 -16 -9 -12 0 -19 -3 -17 -7 6 -10 -19 -34
-27 -26 -3 4 -6 1 -6 -5 0 -7 -7 -12 -15 -12 -8 0 -15 -7 -15 -16 0 -8 -5 -12
-10 -9 -6 3 -13 -1 -16 -10 -4 -9 -13 -14 -21 -11 -8 3 -12 2 -9 -3 5 -7 -15
-22 -34 -25 -3 -1 -16 -11 -29 -23 -13 -12 -27 -20 -31 -18 -5 3 -10 -2 -14
-10 -3 -8 -12 -15 -21 -15 -8 0 -15 -4 -15 -9 0 -5 -13 -14 -30 -21 -16 -7
-27 -17 -23 -23 3 -6 1 -7 -5 -3 -13 7 -72 -23 -72 -36 0 -4 -3 -7 -7 -7 -20
3 -34 -2 -28 -11 3 -6 -1 -7 -9 -4 -9 3 -16 1 -16 -5 0 -6 -9 -11 -20 -11 -11
0 -20 -5 -20 -12 0 -6 -3 -8 -6 -5 -4 4 -19 -2 -34 -13 -16 -11 -35 -20 -44
-20 -9 0 -16 -4 -16 -9 0 -5 -8 -8 -17 -7 -10 2 -24 -3 -31 -11 -8 -7 -18 -11
-23 -8 -5 4 -9 1 -9 -5 0 -7 -7 -10 -15 -6 -8 3 -14 0 -12 -6 1 -7 -8 -13 -20
-14 -13 -1 -25 -2 -28 -3 -3 0 -8 -1 -12 -2 -5 0 -11 -6 -16 -14 -4 -7 -15
-12 -25 -11 -9 2 -19 -1 -22 -5 -3 -5 -15 -10 -25 -12 -11 -1 -26 -6 -33 -11
-7 -4 -19 -5 -27 -2 -9 3 -15 -1 -15 -9 0 -9 -8 -12 -22 -10 -12 3 -25 0 -28
-6 -4 -5 -17 -11 -28 -12 -12 -1 -22 -4 -22 -8 0 -4 -8 -6 -17 -4 -10 1 -24
-2 -32 -8 -7 -6 -23 -12 -35 -14 -11 -1 -41 -7 -66 -13 -25 -7 -49 -13 -55
-14 -5 -1 -15 -5 -22 -9 -6 -4 -15 -2 -19 4 -5 8 -8 8 -14 -1 -4 -6 -21 -12
-38 -12 -18 -1 -32 -4 -32 -8 0 -4 -18 -8 -39 -8 -22 0 -48 -5 -58 -10 -10 -5
-42 -9 -70 -7 -29 1 -53 -1 -53 -5 0 -12 -47 -18 -64 -8 -9 5 -16 5 -16 1 0
-5 -21 -9 -47 -10 -98 -3 -138 -8 -145 -18 -5 -7 -8 -6 -8 1 0 12 -29 12 -48
0 -6 -4 -12 -3 -12 1 0 5 -22 9 -50 9 -27 -1 -50 -5 -50 -10 0 -5 -8 -2 -17 5
-15 12 -16 12 -8 -1 7 -12 6 -13 -6 -3 -16 13 -36 12 -56 0 -7 -5 -13 -4 -13
0 0 5 -12 10 -27 11 -16 1 -29 6 -31 12 -2 5 -11 6 -20 2 -19 -7 -63 -6 -107
3 -16 4 -53 7 -82 8 -29 1 -58 8 -65 15 -18 18 -31 15 -24 -5 6 -16 5 -16 -8
0 -10 13 -16 15 -21 7 -5 -8 -11 -8 -17 -2 -6 6 -17 8 -24 5 -8 -3 -14 -1 -14
4 0 6 -17 10 -37 9 -21 -1 -44 4 -50 11 -7 6 -22 9 -33 6 -11 -3 -20 -1 -20 5
0 5 -21 13 -47 16 -66 8 -84 11 -113 23 -14 6 -28 9 -32 6 -5 -2 -8 0 -8 5 0
5 -12 12 -27 15 -60 12 -67 14 -71 25 -2 6 -10 8 -18 5 -8 -3 -21 0 -29 7 -8
6 -18 9 -24 6 -5 -4 -17 1 -25 10 -9 8 -16 12 -16 7 0 -4 -7 1 -15 11 -8 11
-15 15 -15 9 0 -6 -9 -9 -20 -6 -11 3 -20 10 -20 15 0 5 -4 6 -10 3 -5 -3 -10
-1 -10 4 0 6 -3 10 -7 9 -5 -1 -18 3 -30 10 -13 7 -23 10 -23 7 0 -3 -11 2
-25 11 -14 9 -25 13 -25 9 0 -3 -7 1 -16 9 -8 9 -20 14 -25 11 -5 -4 -9 -1 -9
5 0 6 -4 9 -9 6 -5 -3 -11 1 -15 9 -3 8 -12 12 -21 9 -8 -4 -15 -1 -15 7 0 7
-3 10 -6 6 -4 -3 -13 1 -21 9 -8 8 -19 12 -24 9 -5 -4 -9 -2 -9 2 0 5 -18 16
-40 26 -22 9 -40 22 -40 28 0 5 -4 7 -10 4 -5 -3 -10 -1 -10 4 0 6 -7 11 -16
11 -9 0 -24 8 -33 18 -9 9 -23 18 -31 20 -8 2 -19 10 -23 18 -4 8 -14 14 -22
14 -8 0 -20 8 -26 19 -8 12 -19 16 -32 13 -14 -3 -18 -1 -13 6 4 7 -2 16 -17
21 -14 6 -32 19 -40 31 -8 11 -19 20 -25 18 -5 -2 -21 10 -36 25 -14 15 -26
25 -26 22 0 -3 -9 -1 -20 5 -11 6 -20 18 -20 27 0 9 -3 14 -6 10 -3 -3 -20 8
-36 24 -17 16 -37 29 -44 29 -8 0 -14 6 -14 13 0 6 -13 21 -29 32 -16 10 -27
23 -25 27 3 4 -2 8 -10 8 -9 0 -16 6 -16 14 0 8 -9 18 -20 21 -11 4 -18 11
-15 16 4 5 -1 9 -10 9 -9 0 -13 5 -10 10 3 6 -1 10 -9 10 -9 0 -16 6 -16 14 0
8 -9 18 -20 21 -11 4 -18 10 -15 14 2 4 -7 14 -20 21 -14 7 -25 17 -25 21 0 4
-22 29 -50 56 -27 26 -50 52 -50 57 0 5 -9 16 -19 25 -11 10 -21 23 -23 30 -2
8 -20 31 -41 52 -21 21 -39 42 -40 46 -1 4 -5 7 -9 6 -5 -2 -7 0 -6 5 3 8 -32
63 -45 73 -5 3 -8 9 -8 13 3 20 -1 26 -14 26 -8 0 -15 7 -15 15 0 9 -9 25 -20
37 -10 12 -17 25 -14 30 3 4 0 8 -6 8 -6 0 -8 5 -5 10 3 6 2 10 -3 10 -6 0
-15 14 -21 30 -5 17 -14 30 -19 30 -9 0 -25 37 -23 53 1 4 -4 7 -11 7 -6 0 -9
3 -5 6 3 4 0 13 -8 20 -8 8 -12 21 -9 29 4 9 0 15 -10 15 -8 0 -18 11 -22 25
-3 14 -10 25 -15 25 -5 0 -6 6 -3 14 3 7 -2 20 -10 28 -11 12 -12 18 -3 27 9
10 9 12 -3 9 -9 -2 -18 10 -24 35 -5 20 -13 37 -18 37 -4 0 -8 8 -8 19 0 10
-9 30 -20 44 -13 17 -17 28 -10 32 8 5 5 14 -7 27 -10 11 -17 21 -15 22 2 0 1
8 -2 16 -31 95 -48 148 -53 160 -4 8 -5 21 -4 28 1 6 -3 12 -9 12 -7 0 -10 6
-7 13 2 6 -1 23 -8 37 -7 14 -11 33 -10 43 2 9 -1 17 -6 17 -5 0 -9 16 -9 35
0 19 -4 35 -10 35 -5 0 -8 13 -6 30 2 16 -1 31 -7 33 -6 2 -11 25 -12 51 0 28
-6 50 -14 55 -7 5 -9 11 -4 14 14 9 6 76 -13 104 -9 14 -11 22 -5 19 6 -4 11
-2 11 3 0 6 -6 11 -12 11 -8 0 -9 3 -3 8 9 6 13 57 6 72 -3 5 -7 28 -14 73 -2
15 0 30 5 33 4 3 6 10 2 15 -11 18 -6 443 5 447 7 2 8 10 1 21 -5 10 -6 21 -3
25 4 4 8 35 9 70 1 35 8 74 14 87 9 15 9 24 2 27 -11 3 -4 42 8 42 5 0 7 21 5
46 -1 31 2 47 11 51 9 3 11 15 7 34 -4 20 -1 29 7 29 7 0 10 8 7 20 -3 11 -1
22 4 25 4 3 5 13 2 21 -3 9 -1 19 4 23 6 3 16 29 22 56 12 53 14 62 30 112 5
17 6 35 3 39 -4 4 -1 4 6 0 8 -5 12 0 12 13 0 11 5 23 11 26 6 4 8 13 5 21 -3
7 1 19 8 26 7 7 11 19 8 26 -2 6 1 12 6 12 5 0 13 7 16 16 3 8 2 12 -4 9 -6
-3 -7 1 -4 9 3 9 10 16 15 16 4 0 6 7 3 15 -4 8 -1 15 5 15 6 0 11 9 11 19 0
11 5 23 11 26 5 4 8 12 6 18 -2 7 3 18 10 26 8 7 12 20 9 27 -3 8 -1 14 5 14
6 0 9 6 6 14 -3 8 1 17 9 20 9 3 12 10 9 16 -3 6 1 13 9 16 9 3 14 10 11 14
-3 5 -1 11 5 15 6 4 8 11 5 16 -4 5 1 12 9 15 9 3 14 10 11 14 -3 5 3 13 12
19 13 7 14 10 4 11 -11 0 -11 3 2 18 8 9 15 21 15 25 0 5 10 23 23 40 13 18
24 34 25 37 5 25 37 81 50 88 10 6 15 16 11 26 -4 10 -1 16 9 16 8 0 13 4 10
8 -3 5 4 19 15 31 11 12 18 25 15 30 -3 5 3 11 14 14 12 3 20 14 20 26 0 12 5
21 10 21 6 0 15 11 20 25 5 14 14 25 20 25 6 0 8 5 5 10 -3 6 -1 10 5 10 6 0
13 8 17 18 3 9 16 26 28 37 12 11 23 24 23 28 0 5 18 28 40 51 22 23 43 52 47
65 4 12 9 20 12 18 2 -3 31 23 64 57 32 33 64 66 69 71 6 6 41 40 78 78 36 37
72 67 78 67 6 0 27 18 47 40 19 22 41 40 48 40 7 0 10 3 6 6 -7 7 15 33 24 28
4 -2 18 7 30 21 13 13 29 25 36 25 7 0 17 8 22 18 6 9 11 13 11 9 0 -5 6 -2
14 5 34 32 57 48 71 48 8 0 15 5 15 10 0 6 7 10 15 10 9 0 18 7 22 16 3 8 12
13 19 10 7 -3 17 2 22 10 9 16 43 39 75 50 9 3 17 11 17 16 0 5 4 7 9 4 5 -3
14 1 21 9 7 8 16 12 21 9 5 -3 9 0 9 5 0 6 6 11 14 11 14 0 76 29 86 41 4 5
31 17 50 24 41 14 60 27 54 37 -4 6 -3 8 3 5 12 -8 78 17 88 32 3 5 14 8 25 6
12 -2 18 0 15 6 -4 5 5 9 18 9 28 0 80 24 71 33 -3 3 2 4 13 3 10 -2 30 3 46
11 15 7 27 11 27 7 0 -4 7 0 17 7 9 8 18 13 20 11 4 -3 51 7 73 15 8 3 24 8
34 10 11 2 24 7 30 12 6 4 25 7 41 6 17 0 36 3 43 9 8 5 21 11 30 12 82 11
108 16 117 23 5 4 25 7 43 6 17 -1 32 2 32 6 0 5 29 9 65 9 36 0 65 4 65 8 0
5 27 8 61 7 33 0 72 4 87 11 17 7 29 7 33 1 4 -5 9 -5 13 1z"/>
</g>
</svg>
